Coordinates
version=1
nRows=23
nColumns=30
inDegrees=yes

Units are S.I. units (second, meters, Newtons, ...)
Angles are in degrees.

endheader
time	floatyaw	floatroll	floatpitch	floatx	floaty	floatz	pro_sup_l	deviation_l	flexion_l	cmc_flexion_l	cmc_abduction_l	mp_flexion_l	ip_flexion_l	2mcp_flexion_l	2mcp_abduction_l	2pm_flexion_l	2md_flexion_l	3mcp_flexion_l	3mcp_abduction_l	3pm_flexion_l	3md_flexion_l	4mcp_flexion_l	4mcp_abduction_l	4pm_flexion_l	4md_flexion_l	5mcp_flexion_l	5mcp_abduction_l	5pm_flexion_l	5md_flexion_l
-0.495000	-1.089067	-4.156866	93.821839	0.006509	-0.256285	0.015110	88.333770	1.429095	1.197393	17.696061	9.734334	-16.241785	-22.618918	26.454817	6.963908	27.433246	19.733258	14.621855	4.884316	31.859533	23.547303	3.118020	-4.305954	49.587399	33.428114	-11.803516	-8.646890	55.898622	44.905232
-0.485000	-1.089067	-4.156866	93.821839	0.008753	-0.254746	0.017481	87.969108	1.745105	1.794957	16.642633	10.590954	-16.075123	-21.831949	27.595995	7.098136	26.689572	19.392091	15.534381	4.970715	31.321432	23.577610	3.878703	-4.323495	49.130613	33.298406	-9.947897	-8.541080	54.518800	43.750666
-0.475000	-1.089067	-4.156866	93.821839	0.011276	-0.253150	0.020108	87.515259	2.183606	2.388449	15.451063	11.441552	-15.909708	-21.000100	28.878548	7.208919	25.882950	18.978052	16.594079	5.091659	30.671255	23.575765	4.803305	-4.291311	48.504014	33.168834	-7.966321	-8.476048	52.883602	42.439007
-0.465000	-1.089067	-4.156866	93.821839	0.014083	-0.251536	0.022985	87.001585	2.754604	2.946257	14.128684	12.284968	-15.740011	-20.133387	30.247487	7.303231	25.067385	18.518646	17.765673	5.238882	29.961448	23.555515	5.883047	-4.219780	47.765825	33.056287	-5.913745	-8.463486	51.075953	41.030708
-0.455000	-1.089067	-4.156866	93.821839	0.017177	-0.249920	0.026106	86.464980	3.459844	3.454996	12.703915	13.117970	-15.566021	-19.257755	31.646702	7.392186	24.283851	18.039094	19.011161	5.396919	29.240697	23.527954	7.080469	-4.129925	46.987624	32.970833	-3.837650	-8.483035	49.209874	39.606139
-0.445000	-1.089067	-4.156866	93.821839	0.020560	-0.248300	0.029472	85.944490	4.294280	3.922637	11.221747	13.928384	-15.393059	-18.408348	33.032242	7.486091	23.555426	17.557664	20.302384	5.548018	28.538695	23.497008	8.343554	-4.040945	46.225291	32.914612	-1.786576	-8.499496	47.401870	38.255716
-0.435000	-1.089067	-4.156866	93.821839	0.024237	-0.246661	0.033083	85.478238	5.247970	4.373451	9.733038	14.690680	-15.228185	-17.617116	34.375657	7.589952	22.893104	17.085924	21.627749	5.676963	27.862815	23.456507	9.628102	-3.960481	45.498196	32.882989	0.177482	-8.484212	45.753897	37.063601
-0.425000	-1.089067	-4.156866	93.821839	0.028205	-0.244987	0.036936	85.100043	6.306522	4.837563	8.282150	15.369883	-15.076036	-16.902560	35.659961	7.701419	22.304618	16.631047	22.989431	5.774321	27.206414	23.391718	10.912452	-3.882748	44.788570	32.869110	1.978643	-8.428993	44.343891	36.087377
-0.415000	-1.089067	-4.156866	93.821839	0.032463	-0.243273	0.041024	84.834606	7.449917	5.339600	6.898565	15.936661	-14.936801	-16.267239	36.875299	7.812726	21.798632	16.198129	24.392778	5.837717	26.563665	23.287209	12.194545	-3.794767	44.063527	32.871784	3.545692	-8.347452	43.217570	35.342658
-0.405000	-1.089067	-4.156866	93.821839	0.037003	-0.241538	0.045342	84.693701	8.651320	5.890517	5.596628	16.386679	-14.807507	-15.703655	38.017954	7.916401	21.382791	15.792371	25.833356	5.871566	25.943235	23.138809	13.474286	-3.686620	43.308298	32.902804	4.838604	-8.265901	42.384133	34.803296
-0.395000	-1.089067	-4.156866	93.821839	0.041815	-0.239828	0.049888	84.676707	9.877514	6.485266	4.382753	16.750475	-14.685522	-15.204111	39.090124	8.011834	21.059534	15.421273	27.288232	5.885883	25.372351	22.962633	14.735009	-3.559981	42.548821	32.987353	5.862344	-8.210524	41.822298	34.419556
-0.385000	-1.089067	-4.156866	93.821839	0.046876	-0.238209	0.054651	84.775903	11.091355	7.106683	3.263996	17.085322	-14.571610	-14.767798	40.096773	8.108406	20.824117	15.095869	28.716687	5.894448	24.886974	22.793903	15.938887	-3.430499	41.846000	33.154416	6.657056	-8.197562	41.495316	34.143896
-0.375000	-1.089067	-4.156866	93.821839	0.052147	-0.236751	0.059613	84.983438	12.255849	7.733462	2.251061	17.453823	-14.470638	-14.401006	41.039938	8.222415	20.666721	14.829936	30.070954	5.912194	24.513659	22.674827	17.040497	-3.323030	41.264079	33.422074	7.272820	-8.229711	41.365431	33.949271
-0.365000	-1.089067	-4.156866	93.821839	0.057568	-0.235510	0.064741	85.296252	13.339771	8.348375	1.353998	17.902693	-14.390503	-14.112110	41.914093	8.369025	20.577731	14.637677	31.311551	5.951825	24.256226	22.638844	18.008171	-3.262294	40.836576	33.788223	7.746655	-8.298022	41.400228	33.832829
-0.355000	-1.089067	-4.156866	93.821839	0.063082	-0.234516	0.069998	85.717025	14.324324	8.943260	0.574663	18.452671	-14.340770	-13.905947	42.705589	8.553927	20.553166	14.531296	32.418996	6.020330	24.096961	22.700496	18.837196	-3.263305	40.554787	34.233875	8.093821	-8.386994	41.571637	33.809144
-0.345000	-1.089067	-4.156866	93.821839	0.068647	-0.233775	0.075347	86.251477	15.208284	9.519597	-0.098426	19.100936	-14.331004	-13.780342	43.396706	8.769301	20.596183	14.518604	33.396189	6.116608	24.010067	22.854899	19.547862	-3.325363	40.383328	34.735592	8.313679	-8.480686	41.852803	33.900603
-0.335000	-1.089067	-4.156866	93.821839	0.074244	-0.233277	0.080748	86.903508	16.007505	10.086563	-0.689724	19.829984	-14.367630	-13.724625	43.972423	8.995469	20.712330	14.599738	34.260959	6.231341	23.976330	23.084330	20.175370	-3.431433	40.284857	35.275495	8.402606	-8.567954	42.216433	34.128457
-0.325000	-1.089067	-4.156866	93.821839	0.079869	-0.233002	0.086163	87.669726	16.746584	10.659831	-1.231205	20.616470	-14.449508	-13.719611	44.426492	9.206595	20.900960	14.763774	35.033030	6.349508	23.989458	23.367506	20.762436	-3.552964	40.233896	35.840313	8.366473	-8.645214	42.634693	34.503898
-0.315000	-1.089067	-4.156866	93.821839	0.085514	-0.232928	0.091542	88.535078	17.445716	11.262357	-1.754418	21.437945	-14.564723	-13.739690	44.763472	9.378095	21.149148	14.988718	35.722405	6.454961	24.052610	23.688442	21.356107	-3.658831	40.215949	36.412439	8.229756	-8.716246	43.078886	35.018955
-0.305000	-1.089067	-4.156866	93.821839	0.091158	-0.233042	0.096840	89.472127	18.109968	11.924512	-2.282781	22.278680	-14.691469	-13.757733	44.995778	9.494001	21.433534	15.247563	36.325467	6.535586	24.170247	24.042877	22.001079	-3.725769	40.222244	36.964052	8.040497	-8.789975	43.518170	35.640241
-0.295000	-1.089067	-4.156866	93.821839	0.096765	-0.233342	0.102020	90.446100	18.727454	12.679725	-2.826007	23.134882	-14.803621	-13.751794	45.137922	9.552348	21.729953	15.518558	36.830613	6.587068	24.341753	24.440255	22.725076	-3.746446	40.249166	37.462080	7.868200	-8.877606	43.919167	36.310649
-0.285000	-1.089067	-4.156866	93.821839	0.102299	-0.233843	0.107069	91.424657	19.277393	13.555121	-3.378092	24.016513	-14.878416	-13.710635	45.201419	9.566082	22.024872	15.793905	37.229331	6.613646	24.559999	24.900011	23.523564	-3.731496	40.301737	37.881285	7.790969	-8.989539	44.249432	36.961911
-0.275000	-1.089067	-4.156866	93.821839	0.107719	-0.234571	0.111988	92.387833	19.742988	14.560994	-3.920023	24.942396	-14.902409	-13.635183	45.192415	9.558080	22.321268	16.081557	37.525434	6.625518	24.813839	25.442737	24.356813	-3.704211	40.395006	38.215479	7.873242	-9.131836	44.485847	37.535202
